<svg xmlns="http://www.w3.org/2000/svg" width="1242" height="2436" viewBox="0 0 1242 2436">
  <rect width="1242" height="2436" fill="#121212" />
  <g transform="translate(621, 1218)">
    <!-- Music note icon (larger for splash) -->
    <path d="M-200,-200 L200,-200 C266,-200 300,-166 300,-100 L300,100 C300,166 266,200 200,200 L-200,200 C-266,200 -300,166 -300,100 L-300,-100 C-300,-166 -266,-200 -200,-200 Z" fill="#1DB954" />
    <path d="M0,-100 L0,100 C0,133 -33,166 -66,166 C-100,166 -133,133 -133,100 C-133,66 -100,33 -66,33 L-66,-33 L-133,-66 L-133,-133 L0,-100 Z" fill="#FFFFFF" />
    <circle cx="-66" cy="100" r="33" fill="#FFFFFF" />
    <!-- Sound waves -->
    <path d="M133,0 C200,0 200,66 200,66 L200,133 C200,133 200,200 133,200" stroke="#FFFFFF" stroke-width="26" fill="none" />
    <path d="M200,0 C266,0 266,100 266,100 L266,100 C266,100 266,200 200,200" stroke="#FFFFFF" stroke-width="26" fill="none" />
  </g>
  <!-- App name -->
  <text x="621" y="1500" font-family="Arial, sans-serif" font-size="100" font-weight="bold" fill="#FFFFFF" text-anchor="middle">Streamly</text>
</svg>